<svg width="512" height="512" xmlns="http://www.w3.org/2000/svg" viewBox="48 48 416 416"><defs>

<radialGradient id="violet" cx="30%" cy="25%" r="80%"><stop stop-color="#d9cafa"/><stop offset=".35" stop-color="#9d7bd0"/><stop offset="1" stop-color="#413b62"/></radialGradient>
<radialGradient id="red" cx="30%" cy="25%" r="85%"><stop stop-color="#ffd1bd"/><stop offset=".4" stop-color="#f3776b"/><stop offset="1" stop-color="#793d49"/></radialGradient>

<radialGradient id="blue" cx="30%" cy="25%" r="85%"><stop stop-color="#c5e4ff"/><stop offset=".4" stop-color="#69adf0"/><stop offset="1" stop-color="#354d71"/></radialGradient>

</defs><circle cx="256" cy="256" r="118" fill="none" stroke="#d8c8aa" stroke-opacity=".32" stroke-width="5"/><circle cx="256" cy="256" r="20" fill="#dfd5b9" opacity=".78"/><g transform="translate(141 254) scale(1.05)"><circle cy="5" r="61" fill="#050b12" opacity=".3"/><circle r="60" fill="url(#blue)" stroke="#f9e9dc" stroke-opacity=".33" stroke-width="1.7"/><circle r="48" fill="none" stroke="#fff9df" stroke-opacity=".12" stroke-width="1.5"/><path d="M-35 -35 A49 49 0 0 1 -7 -49" fill="none" stroke="#fff" stroke-opacity=".27" stroke-width="2.5" stroke-linecap="round"/><g fill="none" stroke="#fff5e7" stroke-opacity=".9" stroke-width="5" stroke-linecap="round" stroke-linejoin="round"><circle r="18"/></g></g><g transform="translate(320 151) scale(1.0666666666666667)"><circle cy="5" r="61" fill="#050b12" opacity=".3"/><circle r="60" fill="url(#red)" stroke="#f9e9dc" stroke-opacity=".33" stroke-width="1.7"/><circle r="48" fill="none" stroke="#fff9df" stroke-opacity=".12" stroke-width="1.5"/><path d="M-35 -35 A49 49 0 0 1 -7 -49" fill="none" stroke="#fff" stroke-opacity=".27" stroke-width="2.5" stroke-linecap="round"/><g fill="none" stroke="#fff5e7" stroke-opacity=".9" stroke-width="5" stroke-linecap="round" stroke-linejoin="round"><path d="M-17 0 H17 M0 -17 V17"/></g></g><g transform="translate(336 358) scale(1.05)"><circle cy="5" r="61" fill="#050b12" opacity=".3"/><circle r="60" fill="url(#violet)" stroke="#f9e9dc" stroke-opacity=".33" stroke-width="1.7"/><circle r="48" fill="none" stroke="#fff9df" stroke-opacity=".12" stroke-width="1.5"/><path d="M-35 -35 A49 49 0 0 1 -7 -49" fill="none" stroke="#fff" stroke-opacity=".27" stroke-width="2.5" stroke-linecap="round"/><g fill="none" stroke="#fff5e7" stroke-opacity=".9" stroke-width="5" stroke-linecap="round" stroke-linejoin="round"><path d="M-20 12 A24 24 0 0 1 -4 -24 M20 -12 A24 24 0 0 1 4 24"/></g></g></svg>
